<?xml version="1.0" encoding="iso-8859-1"?>
<!-- Generator: Adobe Illustrator 18.0.0, SVG Export Plug-In . SVG Version: 6.00 Build 0)  -->
<!DOCTYPE svg PUBLIC "-//W3C//DTD SVG 1.1//EN" "http://www.w3.org/Graphics/SVG/1.1/DTD/svg11.dtd">
<svg version="1.1" id="Capa_1" xmlns="http://www.w3.org/2000/svg" xmlns:xlink="http://www.w3.org/1999/xlink" x="0px" y="0px"
	 viewBox="0 0 424.228 424.228" style="enable-background:new 0 0 424.228 424.228;" xml:space="preserve">
<path d="M331.295,172.538c-0.617-0.634-61.842-64.385-68.652-149.579c-0.186-2.339-2.139-4.142-4.485-4.142h-23.166
	C232.888,8.106,223.432,0,212.114,0c-11.318,0-20.774,8.106-22.877,18.817h-23.167c-2.347,0-4.299,1.803-4.485,4.142
	c-6.81,85.194-68.035,148.945-68.652,149.579c-1.263,1.296-1.627,3.223-0.924,4.89c0.703,1.667,2.336,2.751,4.146,2.751h102.832
	v16.015c-5.896,1.766-10.189,7.08-10.189,13.346c0,2.209,0.548,4.292,1.497,6.15c-0.072,0.065-27.118,23.335-27.118,47.697
	c0,24.773,12.372,74.697,31.107,95.058c-1.353,2.125-2.146,4.614-2.146,7.285c0,3.547,1.387,6.779,3.65,9.246
	c-0.004,0.076-0.023,0.148-0.023,0.225c0,17.928-20.124,24.106-20.98,24.36c-0.039,0.012-2.58,0.656-3.143,3.432l-3.183,15.849
	c-0.266,1.322,0.076,2.694,0.931,3.737c0.855,1.043,2.133,1.648,3.482,1.648h78.489c0.008,0,0.015,0,0.02,0
	c2.485,0,4.5-2.015,4.5-4.5c0-0.454-0.066-0.893-0.192-1.306l-3.098-15.428c-0.355-2.714-3.146-3.427-3.174-3.435
	c-0.21-0.061-20.963-6.311-20.963-24.357c0-0.073-0.018-0.141-0.021-0.213c2.27-2.468,3.662-5.705,3.662-9.258
	c0-2.672-0.794-5.161-2.147-7.286c18.735-20.363,31.107-70.285,31.107-95.057c0-25.609-27.048-47.631-27.119-47.695
	c0.949-1.859,1.498-3.943,1.498-6.152c0-6.266-4.295-11.58-10.189-13.346V180.18h37.6v61.402c0,2.485,2.015,4.5,4.5,4.5
	c2.485,0,4.5-2.015,4.5-4.5V180.18h56.232c1.81,0,3.442-1.085,4.146-2.751C332.922,175.761,332.558,173.834,331.295,172.538z
	 M216.614,171.18V27.817h17.49c1.25,18.674,8.037,92.31,39.266,143.362H216.614z M212.114,9c6.321,0,11.689,4.123,13.581,9.817
	h-27.163C200.425,13.123,205.793,9,212.114,9z M150.859,171.18c31.228-51.053,38.015-124.689,39.265-143.362h17.491V171.18H150.859z
	 M132.315,134.817c14.941-24.393,33.398-62.477,37.868-106.999h10.897c-1.432,19.482-8.919,95.197-40.891,143.362h-33.99
	C112.429,163.816,122.175,151.37,132.315,134.817z M223.092,365.73c0,2.741-2.453,4.971-5.468,4.971h-11.02
	c-3.015,0-5.468-2.23-5.468-4.971c0-2.74,2.453-4.97,5.468-4.97h11.02C220.639,360.761,223.092,362.99,223.092,365.73z
	 M178.362,415.228l1.376-6.849h64.751l1.376,6.849H178.362z M230.942,399.379h-37.671c5.202-4.446,9.964-10.817,11.189-19.678
	h15.295C220.98,388.561,225.74,394.933,230.942,399.379z M252.052,263.388c0,23.381-11.753,69.84-28.171,88.373h-23.536
	c-16.417-18.532-28.169-64.991-28.169-88.373c0-15.403,13.381-29.891,23.033-39.878h33.807
	C238.668,233.496,252.052,247.985,252.052,263.388z M220.964,214.51h-17.7c-3.015,0-5.467-2.23-5.467-4.97
	c0-2.74,2.452-4.97,5.467-4.97h17.7c3.015,0,5.467,2.23,5.467,4.97C226.431,212.28,223.979,214.51,220.964,214.51z M216.241,195.57
	h-8.255V180.18h8.255V195.57z M284.038,171.18c-31.971-48.165-39.459-123.88-40.891-143.362h10.897
	c4.471,44.522,22.927,82.607,37.868,106.999c10.14,16.553,19.886,28.999,26.115,36.363H284.038z"/>
<g>
</g>
<g>
</g>
<g>
</g>
<g>
</g>
<g>
</g>
<g>
</g>
<g>
</g>
<g>
</g>
<g>
</g>
<g>
</g>
<g>
</g>
<g>
</g>
<g>
</g>
<g>
</g>
<g>
</g>
</svg>
